<svg version="1.2" xmlns="http://www.w3.org/2000/svg" viewBox="1464.22640940825 203.194209322643 150.10160546990005 150.10160546989997" width="500" height="500">
	<style>
		.s0 { fill: #0a8dcf } 
	</style>
	<g id="-e-logo">
		<g id="&lt;Group&gt;">
			<path id="&lt;Path&gt;" class="s0" d="m1500.03 255.19q13.53 4.35 27.06 8.7 3.3 1.06 6.6 2.12 0.61-1.04 1.22-2.08-17.13 7.64-34.26 15.28-2.4 1.08-4.81 2.15c-0.6 0.27-2.75 1.42-1.22 2.07q15.32 6.62 30.65 13.23c1.13 0.49 2.89-0.05 3.9-0.62 0.67-0.37 1.76-1.28 0.59-1.79q-15.33-6.61-30.65-13.22-0.61 1.04-1.22 2.08 17.12-7.65 34.25-15.29 2.41-1.07 4.81-2.14c0.46-0.21 2.86-1.55 1.22-2.08q-13.16-4.23-26.31-8.46-3.67-1.18-7.34-2.36c-1.22-0.39-2.82 0.01-3.9 0.62-0.57 0.32-1.85 1.38-0.59 1.79z"/>
			<path id="&lt;Path&gt;" class="s0" d="m1513.62 299.2c1.18 3.71 3.4 7.4 6.23 10.06 6.11 5.77 14.9 4.2 21.56 0.2 3.37-2.02 6.95-4.77 9.36-7.88 1.11-1.44 1.53-3.19 1.58-4.98 0.09-3.93-1.73-7.75-3.73-11.01-1.78-2.91-4.17-5.29-6.09-8.07-0.38-0.56-0.6-1.15-0.84-1.8-2.41-6.56-4.11-18.21 4.72-20.75q-1.43 0-2.87-0.01c5.14 4.91 10.29 12.85 8.28 20.22-0.37 1.35 5.07 0.6 5.49-0.91 1.61-5.91-1.01-11.67-4.43-16.41-1.09-1.51-2.28-3.15-3.68-4.41-1.62-1.45-4.18-0.28-5.98 0.43-4.54 1.82-8 5.22-8.8 10.17-0.64 3.94 0.04 8 1.25 11.77 0.29 0.92 0.56 1.95 1.03 2.8 0.43 0.8 1.16 1.44 1.75 2.14 1.46 1.74 2.84 3.54 4.08 5.46 2.34 3.61 4.82 8.3 4.2 12.78-0.32 2.26-1.03 2.97-2.52 4.45-3.39 3.37-8.39 8.2-13.67 6.99-5.71-1.3-9.69-7.45-11.37-12.72-0.46-1.43-5.97 0.14-5.55 1.48z"/>
			<path id="&lt;Path&gt;" class="s0" d="m1513.69 264.53q-0.01 0.15-0.03 0.3 0.01-0.08 0.03-0.16-0.09 0.43-0.38 0.75 0.08-0.09 0.16-0.17-0.13 0.13-0.28 0.23 0.14-0.09 0.27-0.18c-0.07 0.04-0.29 0.16 0 0.01q0.23-0.11 0.1-0.06 0.18-0.07 0.36-0.14c-0.22 0.09 0.54-0.15 0.35-0.1-0.19 0.05 0.57-0.13 0.37-0.09-0.18 0.04 0.54-0.06 0.32-0.05-0.04 0 0.45-0.01 0.26-0.01q-0.06-0.01-0.12-0.01 0.15 0.01 0.31 0.02-0.16-0.01-0.32-0.06 0.11 0.04 0.22 0.07-0.41-0.13-0.7-0.45 0.06 0.06 0.11 0.12c-0.31-0.36-0.44-0.83-0.35-1.3q-0.02 0.08-0.03 0.15 0.08-0.42 0.37-0.74-0.07 0.09-0.15 0.17 0.12-0.13 0.27-0.23-0.13 0.09-0.26 0.18c0.06-0.04 0.29-0.16-0.01-0.01q-0.23 0.11-0.1 0.05-0.18 0.07-0.35 0.14c0.22-0.08-0.55 0.16-0.36 0.11 0.19-0.05-0.56 0.13-0.37 0.09 0.18-0.04-0.53 0.06-0.31 0.05 0.03-0.01-0.45 0.01-0.27 0.01q0.06 0 0.13 0.01-0.16-0.01-0.32-0.03 0.17 0.02 0.32 0.07-0.11-0.04-0.21-0.07 0.4 0.13 0.69 0.45-0.05-0.06-0.1-0.12 0.36 0.43 0.38 1c0 0.21 0.57 0.21 0.63 0.21 0.44 0.01 0.93-0.08 1.35-0.2 0.43-0.12 0.89-0.26 1.27-0.5 0.18-0.11 0.45-0.25 0.44-0.5q-0.01-0.53-0.34-0.96c-0.29-0.36-0.62-0.55-1.07-0.68q-0.4-0.11-0.81-0.09-0.88 0.03-1.73 0.27c-0.87 0.25-1.76 0.59-2.37 1.28-0.47 0.55-0.57 1.41-0.16 2.02 0.73 1.1 2.2 0.96 3.33 0.7 1.29-0.29 3.13-0.94 3.15-2.54 0.01-0.2-0.58-0.21-0.63-0.21-0.44 0-0.93 0.09-1.35 0.21-0.43 0.12-0.89 0.25-1.27 0.49-0.18 0.12-0.44 0.26-0.44 0.5z"/>
			<path id="&lt;Path&gt;" class="s0" d="m1544.04 268.89q0 0.31-0.12 0.6 0.06-0.14 0.12-0.29-0.09 0.2-0.23 0.37 0.12-0.14 0.24-0.28-0.11 0.12-0.23 0.22 0.17-0.13 0.33-0.26-0.11 0.09-0.23 0.16 0.21-0.11 0.41-0.22-0.1 0.05-0.22 0.09 0.24-0.08 0.48-0.17-0.09 0.04-0.19 0.06 0.25-0.05 0.5-0.1-0.13 0.02-0.25 0.03 0.23-0.01 0.47-0.02-0.13 0-0.26-0.01 0.21 0.03 0.42 0.05-0.16-0.02-0.32-0.07 0.18 0.06 0.35 0.12-0.21-0.08-0.39-0.21 0.13 0.1 0.25 0.19-0.25-0.19-0.41-0.47 0.07 0.12 0.14 0.25-0.18-0.33-0.2-0.7 0 0.14 0.01 0.28-0.01-0.33 0.12-0.64-0.06 0.14-0.12 0.29 0.09-0.2 0.23-0.37-0.12 0.14-0.24 0.28 0.11-0.12 0.23-0.22-0.17 0.13-0.33 0.25 0.11-0.08 0.23-0.15-0.21 0.11-0.41 0.22 0.1-0.05 0.22-0.09-0.24 0.08-0.48 0.17 0.09-0.04 0.19-0.06-0.25 0.05-0.5 0.1 0.13-0.02 0.25-0.03-0.23 0.01-0.47 0.02 0.13 0 0.25 0.01-0.2-0.03-0.41-0.06 0.16 0.03 0.32 0.08-0.18-0.06-0.35-0.12 0.21 0.08 0.39 0.21-0.13-0.1-0.25-0.19 0.25 0.19 0.41 0.47-0.07-0.13-0.14-0.25 0.18 0.33 0.2 0.7-0.01-0.14-0.01-0.28 0 0.02 0 0.04-0.06 0.23 0.08 0.41 0.09 0.22 0.32 0.32c0.34 0.19 0.85 0.21 1.23 0.16 0.48-0.06 0.99-0.2 1.39-0.48q0.17-0.13 0.33-0.26 0.27-0.23 0.36-0.57c0-0.26 0-0.51-0.08-0.76q-0.12-0.36-0.35-0.67c-0.32-0.44-0.82-0.69-1.32-0.86q-0.44-0.14-0.9-0.14-0.72-0.02-1.41 0.17-0.68 0.18-1.28 0.55-0.39 0.23-0.69 0.57c-0.35 0.4-0.66 0.87-0.71 1.41q-0.05 0.4 0.03 0.79c0.06 0.24 0.19 0.46 0.32 0.67q0.13 0.22 0.31 0.38 0.3 0.27 0.66 0.44c0.76 0.32 1.55 0.36 2.36 0.21q0.85-0.16 1.6-0.6 0.41-0.24 0.73-0.58c0.39-0.44 0.72-0.97 0.73-1.58q0.06-0.23-0.07-0.41-0.09-0.22-0.32-0.32c-0.34-0.19-0.86-0.21-1.23-0.16-0.49 0.06-0.99 0.2-1.4 0.48q-0.17 0.13-0.33 0.26-0.27 0.23-0.36 0.57z"/>
			<path id="&lt;Path&gt;" class="s0" d="m1533.35 229.31q15.46 12.68 30.93 25.36 2.22 1.82 4.44 3.64c1.45 1.18 6.57-0.97 5.17-2.12q-15.47-12.68-30.94-25.36-2.22-1.82-4.44-3.64c-1.44-1.18-6.57 0.97-5.16 2.12z"/>
			<path id="&lt;Path&gt;" class="s0" d="m1549.08 237.5c0 0 6.34-6.99 13.79-8.56 3.38-0.72 6.99-0.32 10.35 2.35 2.48 1.97 4.87 4.41 5.33 8.9 0 0 0.48 4.45-1.06 7.98-1.61 3.71-3.81 7.74-6.05 8.71"/>
			<path id="&lt;Path&gt;" class="s0" d="m1546.12 318.01c2.37 2.56 5.15 4.88 8.12 6.7 2.15 1.31 4.61 2.32 7.16 2.28 3.51-0.06 6.66-1.8 8.14-5.01 0.82-1.77 1.13-3.73 1.28-5.66 0.24-3.24 0.05-6.52-0.28-9.75-0.12-1.14-2.48-0.81-3.14-0.62-0.93 0.27-2.54 0.9-2.41 2.11 0.45 4.35 0.87 9.14-0.5 13.38q-0.15 0.45-0.33 0.89-0.05 0.12-0.11 0.24c0.01-0.01 0.15-0.29 0.06-0.12q-0.12 0.23-0.25 0.46-0.2 0.33-0.43 0.64c-0.08 0.1-0.19 0.21-0.26 0.32 0.18-0.29 0.28-0.27 0.01-0.05q-0.13 0.11-0.25 0.22c-0.33 0.33 0.52-0.36 0.13-0.1-0.05 0.04-0.25 0.11-0.27 0.16 0.06-0.17 0.73-0.3 0.23-0.13-0.53 0.19 0.62-0.23 0.31-0.1-0.09 0.04-0.2 0.04-0.29 0.08-0.08 0.03 0.76-0.32 0.36-0.08-0.07 0.05-0.74 0.07-0.09 0.02 0.59-0.04-0.17-0.03-0.33-0.02-0.46 0.01 0.53 0.09 0.2 0.02q-0.21-0.04-0.42-0.07-0.36-0.07-0.72-0.16c-0.08-0.02-0.5-0.15-0.13-0.03 0.36 0.11-0.08-0.03-0.18-0.07q-1.55-0.59-2.97-1.46-0.34-0.2-0.67-0.42-0.19-0.12-0.38-0.24c-0.36-0.24 0.1 0.07-0.1-0.07q-0.68-0.48-1.34-0.99-1.23-0.96-2.4-2.01-1.36-1.2-2.6-2.52c-1.29-1.4-6.58 0.62-5.15 2.16z"/>
		</g>
	</g>
</svg>